<?xml version="1.0" encoding="UTF-8"?>
<svg width="20px" height="20px" viewBox="0 0 20 20" version="1.1" xmlns="http://www.w3.org/2000/svg" xmlns:xlink="http://www.w3.org/1999/xlink">
    <!-- Generator: Sketch 52.3 (67297) - http://www.bohemiancoding.com/sketch -->
    <title>FW</title>
    <desc>Created with Sketch.</desc>
    <defs>
        <polygon id="path-1" points="0 0.231463158 10.9704126 0.231463158 10.9704126 6.65835789 0 6.65835789"></polygon>
        <polygon id="path-3" points="0.341109474 0.405031579 6.59374105 0.405031579 6.59374105 11.5789474 0.341109474 11.5789474"></polygon>
    </defs>
    <g id="CMS" stroke="none" stroke-width="1" fill="none" fill-rule="evenodd">
        <g id="MAGS-console-3" transform="translate(-60.000000, -123.000000)">
            <g id="Group-9" transform="translate(50.000000, 80.000000)">
                <g id="FW" transform="translate(10.000000, 43.000000)">
                    <g id="Group-66">
                        <path d="M18.8716926,1.18444211 L14.5516926,8.82596842 C12.8464295,11.8949684 12.8464295,15.5996526 14.5516926,18.6680737 L19.0990611,1.47391579 C18.9853768,1.35812632 18.9285347,1.29965263 18.8716926,1.18444211" id="Fill-62" fill="#FFBB00"></path>
                        <g id="Group-2">
                            <path d="M0.113797895,11.6054947 C0.398008421,13.6897053 1.36432421,15.5996526 2.84221895,17.1054947 L6.13906105,13.7470211 C6.13906105,10.2160211 7.95800842,6.97391579 10.97064,5.1786 L0.113797895,11.6054947 Z" id="Fill-28" fill="#9B65C3"></path>
                            <path d="M6.13883368,13.7471368 C4.43357053,13.7471368 2.78514947,13.2839789 1.30725474,12.4155579 C0.90936,12.1845579 0.511465263,11.8950842 0.113570526,11.6056105 C0.397781053,13.6892421 1.36409684,15.5997684 2.84199158,17.1056105 L6.13883368,13.7471368 Z" id="Fill-30" fill="#9B65C3"></path>
                            <path d="M6.13883368,13.7471368 L2.84199158,17.1056105 C4.31988632,18.6102947 6.19567579,19.5950842 8.24199158,19.8845579 L14.4946232,8.82608421 C12.78936,11.8366105 9.60620211,13.7471368 6.13883368,13.7471368" id="Fill-32" fill="#BE63C5"></path>
                            <path d="M7.44637263,18.6681895 C6.59374105,17.1629263 6.13900421,15.4839789 6.13900421,13.7471368 L2.84216211,17.1056105 C4.32005684,18.6102947 6.19584632,19.5950842 8.24216211,19.8845579 C7.95795158,19.4787158 7.67374105,19.0734526 7.44637263,18.6681895" id="Fill-34" fill="#BF63C6"></path>
                            <path d="M18.4736842,0.779063158 L10.9705263,5.17906316 C7.95789474,6.91590526 4.32,6.91590526 1.30736842,5.17906316 C0.454736842,6.68432632 0,8.42116842 0,10.1580105 C0,10.6211684 0.0568421053,11.1416421 0.113684211,11.6053789 C0.511578947,11.8948526 0.909473684,12.1843263 1.30736842,12.4159053 C2.78526316,13.2843263 4.43368421,13.7469053 6.13894737,13.7469053 L18.6442105,1.01006316 C18.5873684,0.952747368 18.5305263,0.894852632 18.4736842,0.779063158" id="Fill-36" fill="#3278B1"></path>
                            <path d="M1.30725474,12.4156737 C2.78514947,13.2840947 4.43357053,13.7472526 6.13883368,13.7472526 C6.13883368,10.2156737 7.95778105,6.97414737 10.9704126,5.17883158 L0.113570526,11.5472526 C0.511465263,11.8952 0.90936,12.1846737 1.30725474,12.4156737" id="Fill-38" fill="#3278B2"></path>
                            <g id="Group-42" transform="translate(0.000000, 4.947368)">
                                <mask id="mask-2" fill="white">
                                    <use xlink:href="#path-1"></use>
                                </mask>
                                <g id="Clip-41"></g>
                                <path d="M1.30725474,0.231463158 C0.454623158,1.73730526 -0.000113684215,3.47414737 -0.000113684215,5.21098947 C-0.000113684215,5.67356842 0.056728421,6.19462105 0.113570526,6.65835789 L10.9704126,0.231463158 C8.01462316,2.02677895 4.31988632,2.02677895 1.30725474,0.231463158" id="Fill-40" fill="#45A4EC" mask="url(#mask-2)"></path>
                            </g>
                            <path d="M18.6440968,1.01029474 C18.4735705,0.836610526 18.3598863,0.720821053 18.18936,0.605610526 C17.8483074,0.373452632 17.3935705,0.257663158 16.9956758,0.257663158 L9.66304421,0.257663158 C6.19567579,0.257663158 3.01251789,2.16818947 1.30725474,5.17871579 C4.31988632,6.91555789 7.95778105,6.91555789 10.9704126,5.17871579 C7.95778105,6.91555789 6.13883368,10.2155579 6.13883368,13.7471368 C9.60620211,13.7471368 12.78936,11.8950842 14.5514653,8.82608421 L18.8714653,1.18455789 C18.7577811,1.12608421 18.7009389,1.06876842 18.6440968,1.01029474" id="Fill-43" fill="#19BB7D"></path>
                            <path d="M10.9704126,5.17883158 L18.4735705,0.778831579 C18.3598863,0.720936842 18.3030442,0.605726316 18.18936,0.547252632 L1.30725474,5.17883158 C4.31988632,6.97414737 8.01462316,6.97414737 10.9704126,5.17883158" id="Fill-45" fill="#08C7FB"></path>
                            <path d="M16.9388337,0.257778947 L9.66304421,0.257778947 C6.19567579,0.257778947 3.01251789,2.16830526 1.30725474,5.17883158 L18.18936,0.547252632 C17.7914653,0.373568421 17.3935705,0.257778947 16.9388337,0.257778947" id="Fill-47" fill="#59F2F6"></path>
                            <path d="M14.5516358,8.82608421 L18.8716358,1.18455789 C18.8147937,1.12608421 18.7579516,1.06876842 18.7011095,0.9524 L6.19584632,13.6892421 C6.19584632,15.4260842 6.65058316,17.1056105 7.50321474,18.6102947 C7.73058316,19.0161368 8.01479368,19.4214 8.29900421,19.8260842 C8.75374105,19.8845579 9.20847789,19.9418737 9.66321474,19.9418737 C11.3684779,19.9418737 13.0168989,19.4787158 14.4947937,18.6102947 C12.7895305,15.5997684 12.7895305,11.8366105 14.5516358,8.82608421" id="Fill-49" fill="#DA3757"></path>
                            <path d="M6.13883368,13.7471368 C6.13883368,15.4839789 6.59357053,17.1629263 7.44620211,18.6681895 C7.67357053,19.0734526 7.95778105,19.4787158 8.24199158,19.8845579 L14.4946232,8.82608421 C12.78936,11.8366105 9.60620211,13.7471368 6.13883368,13.7471368" id="Fill-51" fill="#D33C4E"></path>
                            <g id="Group-55" transform="translate(7.957895, 8.421053)">
                                <mask id="mask-4" fill="white">
                                    <use xlink:href="#path-3"></use>
                                </mask>
                                <g id="Clip-54"></g>
                                <path d="M6.59374105,0.405031579 L0.341109474,11.4635053 C0.795846316,11.5208211 1.25058316,11.5792947 1.76216211,11.5792947 C3.46742526,11.5792947 5.11584632,11.1155579 6.59374105,10.2471368 C4.83163579,7.17871579 4.83163579,3.41555789 6.59374105,0.405031579" id="Fill-53" fill="#EE5A24" mask="url(#mask-4)"></path>
                            </g>
                            <path d="M19.0421053,1.47391579 C18.8715789,1.18444211 18.7010526,0.952863158 18.4736842,0.779178947 L10.9705263,5.1786 C7.95789474,6.91544211 6.13894737,10.2160211 6.13894737,13.7470211 C9.60631579,13.7470211 12.7894737,11.8949684 14.5515789,8.82596842 C12.8463158,11.8949684 12.8463158,15.5996526 14.5515789,18.6680737 C17.5073684,16.9312316 19.3831579,13.6897053 19.3831579,10.2160211 L19.3831579,2.74702105 C19.3831579,2.28386316 19.2694737,1.8786 19.0421053,1.47391579" id="Fill-56" fill="#8BDF55"></path>
                            <path d="M18.4736842,0.779063158 L10.9705263,5.17906316 C7.95789474,6.91590526 6.13894737,10.2159053 6.13894737,13.7469053 L18.6442105,1.01006316 C18.5873684,0.952747368 18.5305263,0.836957895 18.4736842,0.779063158" id="Fill-58" fill="#25C16F"></path>
                            <path d="M6.13883368,13.7471368 C9.60620211,13.7471368 12.78936,11.8950842 14.5514653,8.82608421 L18.8714653,1.18455789 C18.8146232,1.12608421 18.7577811,1.06876842 18.7009389,0.9524 L6.13883368,13.7471368 Z" id="Fill-60" fill="#8BDF55"></path>
                            <path d="M14.5516358,18.6681895 C17.5642674,16.9313474 19.3832147,13.6892421 19.3832147,10.1582421 L19.3832147,2.74713684 C19.3832147,2.28397895 19.2695305,1.87871579 19.0421621,1.47403158 L14.5516358,18.6681895 Z" id="Fill-64" fill="#FFA800"></path>
                        </g>
                    </g>
                </g>
            </g>
        </g>
    </g>
</svg>
