<?xml version="1.0" encoding="UTF-8"?>
<svg width="19px" height="20px" viewBox="0 0 19 20" version="1.1" xmlns="http://www.w3.org/2000/svg" xmlns:xlink="http://www.w3.org/1999/xlink">
    <!-- Generator: Sketch 52.3 (67297) - http://www.bohemiancoding.com/sketch -->
    <title>FS</title>
    <desc>Created with Sketch.</desc>
    <g id="CMS" stroke="none" stroke-width="1" fill="none" fill-rule="evenodd">
        <g id="MAGS-console-3" transform="translate(-60.000000, -263.000000)" fill-rule="nonzero">
            <g id="FS" transform="translate(60.000000, 263.000000)">
                <g id="download-(2)" transform="translate(0.100000, 0.100000)">
                    <path d="M9.22857143,0.488571429 L16.1771429,0.488571429 C17.48,0.488571429 18.5114286,1.52 18.5114286,2.82285714 L18.5114286,9.77142857 C18.5114286,14.8742857 14.3857143,19 9.28285714,19 L9.22857143,19 C4.12571429,19 0,14.8742857 0,9.77142857 C0,4.66857143 4.12571429,0.542857143 9.22857143,0.488571429 Z" id="Shape" fill="#08C7FB"></path>
                    <path d="M9.12,14.3314286 C9.22857143,14.44 9.39142857,14.3857143 9.5,14.2771429 L12.4314286,10.2057143 L13.0828571,9.28285714 C13.1914286,9.12 13.1371429,8.90285714 13.0285714,8.79428571 C12.9742857,8.74 12.92,8.74 12.8114286,8.74 L8.41428571,8.74 L9.5,5.48285714 C9.55428571,5.37428571 9.5,5.21142857 9.39142857,5.15714286 C9.28285714,5.10285714 9.12,5.15714286 9.06571429,5.26571429 L6.13428571,9.33714286 L5.42857143,10.2057143 C5.32,10.3685714 5.37428571,10.5857143 5.48285714,10.6942857 C5.53714286,10.7485714 5.59142857,10.7485714 5.7,10.7485714 L10.0971429,10.7485714 L9.01142857,14.0057143 C8.95714286,14.1142857 9.01142857,14.2771429 9.12,14.3314286 Z" id="Shape" fill="#FFFFFF"></path>
                </g>
            </g>
        </g>
    </g>
</svg>
