<?xml version="1.0" encoding="UTF-8"?>
<svg width="20px" height="20px" viewBox="0 0 20 20" version="1.1" xmlns="http://www.w3.org/2000/svg" xmlns:xlink="http://www.w3.org/1999/xlink">
    <!-- Generator: Sketch 52.3 (67297) - http://www.bohemiancoding.com/sketch -->
    <title>FD</title>
    <desc>Created with Sketch.</desc>
    <g id="CMS" stroke="none" stroke-width="1" fill="none" fill-rule="evenodd">
        <g id="MAGS-console-3" transform="translate(-60.000000, -218.000000)">
            <g id="FD" transform="translate(60.000000, 218.000000)">
                <g id="download" transform="translate(0.500000, 0.500000)">
                    <path d="M18.755,2.82404571 L18.755,9.77554286" id="Shape"></path>
                    <path d="M9.35,0.488777143 L16.39,0.488777143 C17.71,0.488777143 18.755,1.52064 18.755,2.82404571 L18.755,9.77554286 C18.755,14.8805486 14.575,19.008 9.405,19.008 L9.35,19.008 C4.18,19.008 0,14.8805486 0,9.77554286 C0,4.67053714 4.18,0.543085714 9.35,0.488777143 Z" id="Shape" fill="#25C16F" fill-rule="nonzero"></path>
                    <path d="M9.35,4.61622857 C6.985,4.61622857 5.06,6.51702857 5.06,8.85229714 L5.06,11.7306514 C5.06,12.4909714 5.72,13.1426743 6.49,13.1426743 L7.7,13.1426743 L7.7,9.82985143 L6.05,9.82985143 L6.05,8.90660571 C6.105,7.06011429 7.7,5.64809143 9.515,5.75670857 C11.275,5.81101714 12.65,7.22304 12.705,8.90660571 L12.705,9.82985143 L11.055,9.82985143 L11.055,13.1426743 L12.155,13.1426743 L12.155,13.1969829 C12.155,13.9029943 11.55,14.5003886 10.835,14.5003886 L9.515,14.5003886 C9.405,14.5003886 9.295,14.5546971 9.295,14.6633143 C9.295,14.7719314 9.405,14.8805486 9.515,14.8805486 L10.835,14.8805486 C11.77,14.8805486 12.54,14.1202286 12.54,13.1969829 L12.54,13.0883657 C13.2,12.92544 13.64,12.3823543 13.64,11.7306514 L13.64,8.90660571 C13.695,6.51702857 11.77,4.61622857 9.35,4.61622857 Z" id="Shape" fill="#FFFFFF" fill-rule="nonzero"></path>
                </g>
            </g>
        </g>
    </g>
</svg>
