<?xml version="1.0" encoding="UTF-8"?>
<svg width="19px" height="20px" viewBox="0 0 19 20" version="1.1" xmlns="http://www.w3.org/2000/svg" xmlns:xlink="http://www.w3.org/1999/xlink">
    <!-- Generator: Sketch 52.3 (67297) - http://www.bohemiancoding.com/sketch -->
    <title>FSA</title>
    <desc>Created with Sketch.</desc>
    <g id="CMS" stroke="none" stroke-width="1" fill="none" fill-rule="evenodd">
        <g id="MAGS-console-3" transform="translate(-60.000000, -308.000000)" fill-rule="nonzero">
            <g id="FSA" transform="translate(60.000000, 308.000000)">
                <g id="download-(7)" transform="translate(0.050000, 0.050000)">
                    <path d="M9.29501786,19.0806818 C4.16067896,19.0806818 0,14.9194577 0,9.78620912 C0,4.65296055 4.16122412,0.491736429 9.29501786,0.491736429 L16.2654635,0.491736429 C16.8816892,0.491736429 17.4726759,0.736531138 17.9084133,1.17226852 C18.3441507,1.60800589 18.5889454,2.1989926 18.5889454,2.81521831 L18.5889454,9.78620912 C18.5889454,14.9194577 14.4277213,19.0806818 9.29501786,19.0806818" id="Shape" fill="#FFA800"></path>
                    <path d="M11.2134441,6.96881016 C11.2134441,7.97955199 10.394076,8.79892013 9.38333416,8.79892013 C8.37259233,8.79892013 7.55322419,7.97955199 7.55322419,6.96881016 C7.55322419,5.95806834 8.37259233,5.13870019 9.38333416,5.13870019 C10.394076,5.13870019 11.2134441,5.95806834 11.2134441,6.96881016 Z M5.30170373,9.44221169 L8.49580987,12.636863 L8.49580987,14.4331729 L10.0931355,14.4331729 L10.0931355,12.636863 L13.2872417,9.44275685 L5.30170373,9.44221169 Z" id="Shape" fill="#FFFFFF"></path>
                </g>
            </g>
        </g>
    </g>
</svg>
